<svg width="1220" height="230" viewBox="0 0 1220 230" fill="none" xmlns="http://www.w3.org/2000/svg">
<rect width="1220" height="230" fill="white"/>
<g clip-path="url(#clip0_7_2)">
<rect x="10" y="10" width="100" height="100" rx="10" fill="#F2F8FD"/>
<rect x="120" y="10" width="100" height="100" rx="10" fill="#E4EFFA"/>
<rect x="230" y="10" width="100" height="100" rx="10" fill="#C2DEF5"/>
<rect x="340" y="10" width="100" height="100" rx="10" fill="#8DC3EC"/>
<rect x="450" y="10" width="100" height="100" rx="10" fill="#50A5E0"/>
<rect x="560" y="10" width="100" height="100" rx="10" fill="#298ACE"/>
<rect x="670" y="10" width="100" height="100" rx="10" fill="#1D78C1"/>
<rect x="780" y="10" width="100" height="100" rx="10" fill="#16568E"/>
<rect x="890" y="10" width="100" height="100" rx="10" fill="#174A75"/>
<rect x="1000" y="10" width="100" height="100" rx="10" fill="#183F62"/>
<rect x="1110" y="10" width="100" height="100" rx="10" fill="#102841"/>
</g>
<g clip-path="url(#clip1_7_2)">
<rect x="10" y="120" width="100" height="100" rx="10" fill="#F8FAFC"/>
<rect x="120" y="120" width="100" height="100" rx="10" fill="#F8FAFC"/>
<rect x="230" y="120" width="100" height="100" rx="10" fill="#E2E8F0"/>
<rect x="340" y="120" width="100" height="100" rx="10" fill="#CAD5E2"/>
<rect x="450" y="120" width="100" height="100" rx="10" fill="#90A1B9"/>
<rect x="560" y="120" width="100" height="100" rx="10" fill="#62748E"/>
<rect x="670" y="120" width="100" height="100" rx="10" fill="#45556C"/>
<rect x="780" y="120" width="100" height="100" rx="10" fill="#314158"/>
<rect x="890" y="120" width="100" height="100" rx="10" fill="#0F172B"/>
<rect x="1000" y="120" width="100" height="100" rx="10" fill="#0F172B"/>
<rect x="1110" y="120" width="100" height="100" rx="10" fill="#020618"/>
</g>
<defs>
<clipPath id="clip0_7_2">
<rect width="1200" height="100" fill="white" transform="translate(10 10)"/>
</clipPath>
<clipPath id="clip1_7_2">
<rect width="1200" height="100" fill="white" transform="translate(10 120)"/>
</clipPath>
</defs>
</svg>
