<svg width="774" height="876" viewBox="0 0 774 876" fill="none" xmlns="http://www.w3.org/2000/svg">
<g clip-path="url(#clip0_8_6)">
<path d="M387 0L774 218.9V656.8L387 875.7L0 656.8V218.9L387 0Z" fill="#F2F8FD"/>
<path d="M704.9 641.7L399.8 814.3V679.9L589.9 575.3L704.9 641.7ZM725.8 622.8V261.9L614.2 326.4V558.4L725.8 622.8ZM67.9 641.7L373 814.3V679.9L182.8 575.3L67.9 641.7ZM47 622.8V261.9L158.6 326.4V558.4L47 622.8ZM60.1 238.5L373 61.5V191.4L172.5 301.7L170.9 302.6L60.1 238.5ZM712.7 238.5L399.8 61.5V191.4L600.3 301.6L601.9 302.5L712.7 238.5Z" fill="#C2DEF5"/>
<path d="M373 649.3L185.4 546.1V341.8L373 450.1V649.3ZM399.8 649.3L587.4 546.2V341.8L399.8 450.1V649.3ZM198.1 318.2L386.4 214.7L574.7 318.2L386.4 426.9L198.1 318.2Z" fill="#1C78C0"/>
</g>
<defs>
<clipPath id="clip0_8_6">
<rect width="774" height="875.7" fill="white"/>
</clipPath>
</defs>
</svg>
