<svg width="3916" height="1524" viewBox="0 0 3916 1524" fill="none" xmlns="http://www.w3.org/2000/svg">
<path d="M822 336L1209 554.9V992.8L822 1211.7L435 992.8V554.9L822 336Z" fill="#F2F8FD"/>
<path d="M1139.9 977.7L834.8 1150.3V1015.9L1024.9 911.3L1139.9 977.7ZM1160.8 958.8V597.9L1049.2 662.4V894.4L1160.8 958.8ZM502.9 977.7L808 1150.3V1015.9L617.8 911.3L502.9 977.7ZM482 958.8V597.9L593.6 662.4V894.4L482 958.8ZM495.1 574.5L808 397.5V527.4L607.5 637.7L605.9 638.6L495.1 574.5ZM1147.7 574.5L834.8 397.5V527.4L1035.3 637.6L1036.9 638.5L1147.7 574.5Z" fill="#C2DEF5"/>
<path d="M808 985.3L620.4 882.1V677.8L808 786.1V985.3ZM834.8 985.3L1022.4 882.2V677.8L834.8 786.1V985.3ZM633.1 654.2L821.4 550.7L1009.7 654.2L821.4 762.9L633.1 654.2Z" fill="#1D78C1"/>
<path d="M1366.75 897L1278.21 642.098H1377.93L1445.04 849.002H1397.04L1467.41 642.098H1556.88L1623.98 849.002H1577.38L1646.82 642.098H1739.08L1650.54 897H1548.02L1494.43 732.968H1525.19L1469.27 897H1366.75ZM1893.29 901.66C1862.22 901.66 1835.04 895.913 1811.74 884.418C1788.75 872.923 1770.89 857.235 1758.15 837.352C1745.41 817.159 1739.04 794.48 1739.04 769.316C1739.04 743.531 1745.26 720.697 1757.68 700.814C1770.42 680.931 1787.66 665.398 1809.41 654.214C1831.47 643.03 1856.17 637.438 1883.5 637.438C1908.67 637.438 1931.81 642.409 1952.94 652.35C1974.37 662.291 1991.46 677.048 2004.2 696.62C2017.25 716.192 2023.77 740.424 2023.77 769.316C2023.77 773.044 2023.61 777.238 2023.3 781.898C2022.99 786.247 2022.68 790.286 2022.37 794.014H1826.19V743.22H1966.45L1926.84 756.734C1926.84 746.793 1924.98 738.405 1921.25 731.57C1917.83 724.425 1913.02 718.988 1906.8 715.26C1900.59 711.221 1893.13 709.202 1884.44 709.202C1875.74 709.202 1868.13 711.221 1861.6 715.26C1855.39 718.988 1850.57 724.425 1847.16 731.57C1843.74 738.405 1842.03 746.793 1842.03 756.734V772.578C1842.03 783.451 1844.2 792.771 1848.55 800.538C1852.9 808.305 1859.12 814.207 1867.19 818.246C1875.27 821.974 1885.06 823.838 1896.55 823.838C1908.36 823.838 1917.99 822.285 1925.44 819.178C1933.21 816.071 1941.29 811.411 1949.68 805.198L2004.66 860.652C1992.24 874.011 1976.86 884.263 1958.53 891.408C1940.51 898.243 1918.76 901.66 1893.29 901.66ZM2227.1 901.66C2203.8 901.66 2185 897 2170.71 887.68C2156.42 878.36 2146.01 863.914 2139.49 844.342C2133.27 824.77 2130.17 799.761 2130.17 769.316C2130.17 739.181 2133.58 714.483 2140.42 695.222C2147.25 675.65 2157.82 661.204 2172.11 651.884C2186.71 642.253 2205.04 637.438 2227.1 637.438C2249.46 637.438 2269.97 642.719 2288.61 653.282C2307.25 663.845 2322.16 679.067 2333.34 698.95C2344.53 718.522 2350.12 741.977 2350.12 769.316C2350.12 796.655 2344.53 820.265 2333.34 840.148C2322.16 859.72 2307.25 874.943 2288.61 885.816C2269.97 896.379 2249.46 901.66 2227.1 901.66ZM2057.01 897V551.228H2162.32V676.116L2157.66 769.316L2157.2 862.516V897H2057.01ZM2201.93 819.644C2209.7 819.644 2216.69 817.78 2222.9 814.052C2229.11 810.324 2234.09 804.732 2237.81 797.276C2241.54 789.509 2243.41 780.189 2243.41 769.316C2243.41 758.132 2241.54 748.967 2237.81 741.822C2234.09 734.366 2229.11 728.774 2222.9 725.046C2216.69 721.318 2209.7 719.454 2201.93 719.454C2194.16 719.454 2187.17 721.318 2180.96 725.046C2174.75 728.774 2169.78 734.366 2166.05 741.822C2162.32 748.967 2160.46 758.132 2160.46 769.316C2160.46 780.189 2162.32 789.509 2166.05 797.276C2169.78 804.732 2174.75 810.324 2180.96 814.052C2187.17 817.78 2194.16 819.644 2201.93 819.644ZM2553.39 901.66C2531.33 901.66 2513 897 2498.4 887.68C2484.11 878.049 2473.54 863.603 2466.71 844.342C2459.88 824.77 2456.46 799.917 2456.46 769.782C2456.46 739.026 2459.56 714.017 2465.78 694.756C2472.3 675.184 2482.71 660.738 2497 651.418C2511.29 642.098 2530.09 637.438 2553.39 637.438C2575.75 637.438 2596.26 642.875 2614.9 653.748C2633.54 664.311 2648.45 679.533 2659.63 699.416C2670.82 718.988 2676.41 742.443 2676.41 769.782C2676.41 797.121 2670.82 820.731 2659.63 840.614C2648.45 860.186 2633.54 875.253 2614.9 885.816C2596.26 896.379 2575.75 901.66 2553.39 901.66ZM2383.3 987.404V642.098H2483.49V676.582L2483.95 769.782L2488.61 862.982V987.404H2383.3ZM2528.22 819.644C2535.99 819.644 2542.98 817.78 2549.19 814.052C2555.41 810.324 2560.38 804.732 2564.1 797.276C2567.83 789.82 2569.7 780.655 2569.7 769.782C2569.7 758.598 2567.83 749.278 2564.1 741.822C2560.38 734.366 2555.41 728.774 2549.19 725.046C2542.98 721.318 2535.99 719.454 2528.22 719.454C2520.46 719.454 2513.47 721.318 2507.25 725.046C2501.04 728.774 2496.07 734.366 2492.34 741.822C2488.61 749.278 2486.75 758.598 2486.75 769.782C2486.75 780.655 2488.61 789.82 2492.34 797.276C2496.07 804.732 2501.04 810.324 2507.25 814.052C2513.47 817.78 2520.46 819.644 2528.22 819.644ZM2857.46 897V851.798L2850.01 839.682V753.938C2850.01 741.511 2846.12 732.036 2838.36 725.512C2830.9 718.988 2818.63 715.726 2801.54 715.726C2790.05 715.726 2778.4 717.59 2766.59 721.318C2754.79 724.735 2744.69 729.551 2736.3 735.764L2702.75 666.33C2717.66 657.01 2735.53 649.865 2756.34 644.894C2777.15 639.923 2797.5 637.438 2817.39 637.438C2861.19 637.438 2895.05 647.224 2918.97 666.796C2943.21 686.368 2955.32 717.435 2955.32 759.996V897H2857.46ZM2785.23 901.66C2764.42 901.66 2747.02 898.087 2733.04 890.942C2719.06 883.797 2708.5 874.321 2701.35 862.516C2694.21 850.4 2690.63 837.041 2690.63 822.44C2690.63 805.975 2694.83 791.995 2703.22 780.5C2711.6 769.005 2724.34 760.307 2741.43 754.404C2758.83 748.501 2780.73 745.55 2807.13 745.55H2860.26V796.344H2823.91C2812.73 796.344 2804.49 798.208 2799.21 801.936C2794.24 805.353 2791.76 810.635 2791.76 817.78C2791.76 823.683 2793.93 828.653 2798.28 832.692C2802.94 836.42 2809.15 838.284 2816.92 838.284C2824.07 838.284 2830.59 836.42 2836.49 832.692C2842.71 828.653 2847.21 822.44 2850.01 814.052L2863.52 845.274C2859.48 864.225 2850.94 878.36 2837.89 887.68C2824.84 897 2807.29 901.66 2785.23 901.66ZM3142.39 901.66C3113.19 901.66 3087.25 896.068 3064.57 884.884C3041.89 873.7 3024.03 858.167 3010.98 838.284C2998.24 818.091 2991.87 795.101 2991.87 769.316C2991.87 743.531 2998.24 720.697 3010.98 700.814C3024.03 680.931 3041.89 665.398 3064.57 654.214C3087.25 643.03 3113.19 637.438 3142.39 637.438C3173.46 637.438 3200.02 644.117 3222.08 657.476C3244.14 670.835 3259.36 689.319 3267.75 712.93L3186.2 753.006C3180.91 741.201 3174.39 732.657 3166.62 727.376C3159.17 722.095 3150.94 719.454 3141.93 719.454C3134.16 719.454 3126.86 721.318 3120.02 725.046C3113.5 728.774 3108.22 734.366 3104.18 741.822C3100.45 748.967 3098.59 758.132 3098.59 769.316C3098.59 780.5 3100.45 789.82 3104.18 797.276C3108.22 804.732 3113.5 810.324 3120.02 814.052C3126.86 817.78 3134.16 819.644 3141.93 819.644C3150.94 819.644 3159.17 817.003 3166.62 811.722C3174.39 806.441 3180.91 797.897 3186.2 786.092L3267.75 826.168C3259.36 849.779 3244.14 868.263 3222.08 881.622C3200.02 894.981 3173.46 901.66 3142.39 901.66ZM3380.16 855.06L3382.49 731.104L3470.57 642.098H3594.99L3478.49 764.19L3425.83 806.596L3380.16 855.06ZM3292.09 897V551.228H3397.4V897H3292.09ZM3476.16 897L3406.26 808.46L3471.03 728.774L3603.38 897H3476.16Z" fill="#F2F8FD"/>
</svg>
