<svg width="3916" height="1524" viewBox="0 0 3916 1524" fill="none" xmlns="http://www.w3.org/2000/svg">
<path d="M822 336L1209 554.9V992.8L822 1211.7L435 992.8V554.9L822 336Z" fill="#F2F8FD"/>
<path d="M1139.9 977.7L834.8 1150.3V1015.9L1024.9 911.3L1139.9 977.7ZM1160.8 958.8V597.9L1049.2 662.4V894.4L1160.8 958.8ZM502.9 977.7L808 1150.3V1015.9L617.8 911.3L502.9 977.7ZM482 958.8V597.9L593.6 662.4V894.4L482 958.8ZM495.1 574.5L808 397.5V527.4L607.5 637.7L605.9 638.6L495.1 574.5ZM1147.7 574.5L834.8 397.5V527.4L1035.3 637.6L1036.9 638.5L1147.7 574.5Z" fill="#C2DEF5"/>
<path d="M808 985.3L620.4 882.1V677.8L808 786.1V985.3ZM834.8 985.3L1022.4 882.2V677.8L834.8 786.1V985.3ZM633.1 654.2L821.4 550.7L1009.7 654.2L821.4 762.9L633.1 654.2Z" fill="#1D78C1"/>
<path d="M1346.41 897L1242.02 570.8H1355.26L1439.61 846.206H1382.76L1472.23 570.8H1573.35L1656.76 846.206H1602.24L1690.32 570.8H1794.7L1690.32 897H1572.42L1504.38 671.456H1536.07L1464.31 897H1346.41ZM1937.93 901.66C1906.87 901.66 1879.68 895.913 1856.38 884.418C1833.39 872.923 1815.53 857.235 1802.79 837.352C1790.06 817.159 1783.69 794.48 1783.69 769.316C1783.69 743.531 1789.9 720.697 1802.33 700.814C1815.06 680.931 1832.31 665.398 1854.05 654.214C1876.11 643.03 1900.81 637.438 1928.15 637.438C1953.31 637.438 1976.46 642.409 1997.58 652.35C2019.02 662.291 2036.1 677.048 2048.84 696.62C2061.89 716.192 2068.41 740.424 2068.41 769.316C2068.41 773.044 2068.26 777.238 2067.95 781.898C2067.64 786.247 2067.33 790.286 2067.01 794.014H1870.83V743.22H2011.09L1971.48 756.734C1971.48 746.793 1969.62 738.405 1965.89 731.57C1962.48 724.425 1957.66 718.988 1951.45 715.26C1945.23 711.221 1937.78 709.202 1929.08 709.202C1920.38 709.202 1912.77 711.221 1906.24 715.26C1900.03 718.988 1895.22 724.425 1891.8 731.57C1888.38 738.405 1886.67 746.793 1886.67 756.734V772.578C1886.67 783.451 1888.85 792.771 1893.2 800.538C1897.55 808.305 1903.76 814.207 1911.84 818.246C1919.91 821.974 1929.7 823.838 1941.19 823.838C1953 823.838 1962.63 822.285 1970.09 819.178C1977.85 816.071 1985.93 811.411 1994.32 805.198L2049.31 860.652C2036.88 874.011 2021.5 884.263 2003.17 891.408C1985.15 898.243 1963.41 901.66 1937.93 901.66ZM2271.74 901.66C2248.44 901.66 2229.64 897 2215.35 887.68C2201.06 878.36 2190.65 863.914 2184.13 844.342C2177.92 824.77 2174.81 799.761 2174.81 769.316C2174.81 739.181 2178.23 714.483 2185.06 695.222C2191.9 675.65 2202.46 661.204 2216.75 651.884C2231.35 642.253 2249.68 637.438 2271.74 637.438C2294.11 637.438 2314.61 642.719 2333.25 653.282C2351.89 663.845 2366.8 679.067 2377.99 698.95C2389.17 718.522 2394.76 741.977 2394.76 769.316C2394.76 796.655 2389.17 820.265 2377.99 840.148C2366.8 859.72 2351.89 874.943 2333.25 885.816C2314.61 896.379 2294.11 901.66 2271.74 901.66ZM2101.65 897V551.228H2206.96V676.116L2202.3 769.316L2201.84 862.516V897H2101.65ZM2246.57 819.644C2254.34 819.644 2261.33 817.78 2267.54 814.052C2273.76 810.324 2278.73 804.732 2282.46 797.276C2286.18 789.509 2288.05 780.189 2288.05 769.316C2288.05 758.132 2286.18 748.967 2282.46 741.822C2278.73 734.366 2273.76 728.774 2267.54 725.046C2261.33 721.318 2254.34 719.454 2246.57 719.454C2238.81 719.454 2231.82 721.318 2225.6 725.046C2219.39 728.774 2214.42 734.366 2210.69 741.822C2206.96 748.967 2205.1 758.132 2205.1 769.316C2205.1 780.189 2206.96 789.509 2210.69 797.276C2214.42 804.732 2219.39 810.324 2225.6 814.052C2231.82 817.78 2238.81 819.644 2246.57 819.644ZM2598.03 901.66C2575.97 901.66 2557.64 897 2543.04 887.68C2528.75 878.049 2518.19 863.603 2511.35 844.342C2504.52 824.77 2501.1 799.917 2501.1 769.782C2501.1 739.026 2504.21 714.017 2510.42 694.756C2516.94 675.184 2527.35 660.738 2541.64 651.418C2555.93 642.098 2574.73 637.438 2598.03 637.438C2620.4 637.438 2640.9 642.875 2659.54 653.748C2678.18 664.311 2693.09 679.533 2704.28 699.416C2715.46 718.988 2721.05 742.443 2721.05 769.782C2721.05 797.121 2715.46 820.731 2704.28 840.614C2693.09 860.186 2678.18 875.253 2659.54 885.816C2640.9 896.379 2620.4 901.66 2598.03 901.66ZM2427.94 987.404V642.098H2528.13V676.582L2528.59 769.782L2533.25 862.982V987.404H2427.94ZM2572.86 819.644C2580.63 819.644 2587.62 817.78 2593.83 814.052C2600.05 810.324 2605.02 804.732 2608.75 797.276C2612.47 789.82 2614.34 780.655 2614.34 769.782C2614.34 758.598 2612.47 749.278 2608.75 741.822C2605.02 734.366 2600.05 728.774 2593.83 725.046C2587.62 721.318 2580.63 719.454 2572.86 719.454C2565.1 719.454 2558.11 721.318 2551.89 725.046C2545.68 728.774 2540.71 734.366 2536.98 741.822C2533.25 749.278 2531.39 758.598 2531.39 769.782C2531.39 780.655 2533.25 789.82 2536.98 797.276C2540.71 804.732 2545.68 810.324 2551.89 814.052C2558.11 817.78 2565.1 819.644 2572.86 819.644ZM2902.1 897V851.798L2894.65 839.682V753.938C2894.65 741.511 2890.77 732.036 2883 725.512C2875.54 718.988 2863.27 715.726 2846.18 715.726C2834.69 715.726 2823.04 717.59 2811.23 721.318C2799.43 724.735 2789.33 729.551 2780.94 735.764L2747.39 666.33C2762.3 657.01 2780.17 649.865 2800.98 644.894C2821.8 639.923 2842.15 637.438 2862.03 637.438C2905.83 637.438 2939.7 647.224 2963.62 666.796C2987.85 686.368 2999.96 717.435 2999.96 759.996V897H2902.1ZM2829.87 901.66C2809.06 901.66 2791.66 898.087 2777.68 890.942C2763.7 883.797 2753.14 874.321 2745.99 862.516C2738.85 850.4 2735.28 837.041 2735.28 822.44C2735.28 805.975 2739.47 791.995 2747.86 780.5C2756.25 769.005 2768.98 760.307 2786.07 754.404C2803.47 748.501 2825.37 745.55 2851.78 745.55H2904.9V796.344H2868.55C2857.37 796.344 2849.14 798.208 2843.85 801.936C2838.88 805.353 2836.4 810.635 2836.4 817.78C2836.4 823.683 2838.57 828.653 2842.92 832.692C2847.58 836.42 2853.8 838.284 2861.56 838.284C2868.71 838.284 2875.23 836.42 2881.13 832.692C2887.35 828.653 2891.85 822.44 2894.65 814.052L2908.16 845.274C2904.12 864.225 2895.58 878.36 2882.53 887.68C2869.48 897 2851.93 901.66 2829.87 901.66ZM3187.03 901.66C3157.83 901.66 3131.89 896.068 3109.21 884.884C3086.53 873.7 3068.67 858.167 3055.62 838.284C3042.89 818.091 3036.52 795.101 3036.52 769.316C3036.52 743.531 3042.89 720.697 3055.62 700.814C3068.67 680.931 3086.53 665.398 3109.21 654.214C3131.89 643.03 3157.83 637.438 3187.03 637.438C3218.1 637.438 3244.66 644.117 3266.72 657.476C3288.78 670.835 3304 689.319 3312.39 712.93L3230.84 753.006C3225.56 741.201 3219.03 732.657 3211.27 727.376C3203.81 722.095 3195.58 719.454 3186.57 719.454C3178.8 719.454 3171.5 721.318 3164.67 725.046C3158.14 728.774 3152.86 734.366 3148.82 741.822C3145.09 748.967 3143.23 758.132 3143.23 769.316C3143.23 780.5 3145.09 789.82 3148.82 797.276C3152.86 804.732 3158.14 810.324 3164.67 814.052C3171.5 817.78 3178.8 819.644 3186.57 819.644C3195.58 819.644 3203.81 817.003 3211.27 811.722C3219.03 806.441 3225.56 797.897 3230.84 786.092L3312.39 826.168C3304 849.779 3288.78 868.263 3266.72 881.622C3244.66 894.981 3218.1 901.66 3187.03 901.66ZM3424.8 855.06L3427.13 731.104L3515.21 642.098H3639.63L3523.13 764.19L3470.47 806.596L3424.8 855.06ZM3336.73 897V551.228H3442.05V897H3336.73ZM3520.8 897L3450.9 808.46L3515.67 728.774L3648.02 897H3520.8Z" fill="#F2F8FD"/>
</svg>
